<svg id="svg" version="1.1" xmlns="http://www.w3.org/2000/svg" xmlns:xlink="http://www.w3.org/1999/xlink" width="400" height="425.53191489361706" viewBox="0, 0, 400,425.53191489361706"><g id="svgg"><path id="path0" d="M181.200 1.200 L 181.200 2.400 178.026 2.400 C 173.477 2.400,172.800 2.736,172.800 4.990 L 172.800 6.800 168.864 6.800 C 164.567 6.800,164.000 7.152,164.000 9.819 C 164.000 10.594,163.794 10.800,163.019 10.800 C 160.891 10.800,160.000 11.586,160.000 13.464 L 160.000 15.200 156.826 15.200 C 152.534 15.200,151.679 15.568,151.362 17.549 L 151.110 19.124 147.575 19.262 C 143.597 19.417,143.227 19.631,142.916 21.952 L 142.695 23.600 139.573 23.600 C 135.080 23.600,134.400 23.940,134.400 26.190 L 134.400 28.000 130.464 28.000 C 126.180 28.000,125.600 28.355,125.600 30.979 C 125.600 31.887,125.473 31.925,122.020 32.060 C 117.995 32.217,117.627 32.428,117.316 34.752 C 117.129 36.142,116.950 36.400,116.173 36.400 C 113.957 36.400,113.200 37.059,113.200 38.990 L 113.200 40.800 109.264 40.800 C 104.980 40.800,104.400 41.155,104.400 43.779 C 104.400 44.687,104.273 44.725,100.820 44.860 C 96.795 45.017,96.427 45.228,96.116 47.552 L 95.895 49.200 92.773 49.200 C 88.280 49.200,87.600 49.540,87.600 51.790 L 87.600 53.600 83.664 53.600 C 79.380 53.600,78.800 53.955,78.800 56.579 C 78.800 57.487,78.673 57.525,75.220 57.660 C 71.195 57.817,70.827 58.028,70.516 60.352 C 70.302 61.943,70.244 62.000,68.827 62.000 C 66.973 62.000,66.400 62.576,66.400 64.441 L 66.400 65.923 62.619 66.061 C 58.387 66.217,58.029 66.413,57.716 68.752 L 57.495 70.400 54.797 70.400 C 50.074 70.400,49.656 70.588,49.356 72.849 L 49.097 74.800 45.428 74.800 C 41.276 74.800,40.800 75.051,40.800 77.241 L 40.800 78.723 37.019 78.861 C 32.799 79.016,32.429 79.216,32.121 81.514 L 31.905 83.124 28.372 83.262 C 24.397 83.417,24.027 83.631,23.716 85.952 C 23.502 87.543,23.444 87.600,22.027 87.600 C 20.173 87.600,19.600 88.176,19.600 90.041 L 19.600 91.523 15.819 91.661 C 11.601 91.816,11.229 92.017,10.922 94.306 L 10.707 95.909 6.969 96.072 C 2.689 96.259,2.804 96.200,2.514 98.367 C 2.315 99.847,2.187 100.000,1.147 100.000 L 0.000 100.000 0.000 108.400 L 0.000 116.800 1.148 116.800 C 2.221 116.800,2.314 116.929,2.556 118.751 C 2.856 121.012,3.274 121.200,7.997 121.200 L 10.695 121.200 10.916 122.848 C 11.229 125.187,11.587 125.383,15.819 125.539 L 19.600 125.677 19.600 127.159 C 19.600 129.353,20.073 129.600,24.280 129.600 L 28.000 129.600 28.000 131.410 C 28.000 133.664,28.677 134.000,33.226 134.000 C 36.322 134.000,36.400 134.024,36.400 134.974 C 36.400 137.708,36.838 138.000,40.937 138.000 L 44.695 138.000 44.916 139.648 C 45.229 141.987,45.587 142.183,49.819 142.339 L 53.600 142.477 53.600 144.174 C 53.600 146.011,54.507 146.800,56.619 146.800 C 57.394 146.800,57.600 147.006,57.600 147.781 C 57.600 150.448,58.167 150.800,62.464 150.800 L 66.400 150.800 66.400 152.610 C 66.400 154.860,67.080 155.200,71.573 155.200 L 74.695 155.200 74.921 156.886 C 75.233 159.213,75.940 159.600,79.876 159.600 C 83.131 159.600,83.200 159.620,83.200 160.574 C 83.200 163.308,83.638 163.600,87.737 163.600 L 91.495 163.600 91.716 165.248 C 92.029 167.587,92.387 167.783,96.619 167.939 L 100.400 168.077 100.400 169.790 C 100.400 172.387,100.768 172.458,113.509 172.319 C 125.419 172.188,125.135 172.252,125.484 169.648 C 125.671 168.258,125.850 168.000,126.627 168.000 C 128.843 168.000,129.600 167.341,129.600 165.410 L 129.600 163.600 133.536 163.600 C 137.820 163.600,138.400 163.245,138.400 160.621 C 138.400 159.713,138.527 159.675,141.980 159.540 C 146.005 159.383,146.373 159.172,146.684 156.848 L 146.905 155.200 150.027 155.200 C 154.520 155.200,155.200 154.860,155.200 152.610 L 155.200 150.800 157.010 150.800 C 158.953 150.800,159.600 150.044,159.600 147.774 C 159.600 146.824,159.677 146.800,162.781 146.800 C 167.140 146.800,168.000 146.361,168.000 144.136 L 168.000 142.400 171.174 142.400 C 175.723 142.400,176.400 142.064,176.400 139.810 L 176.400 138.000 180.336 138.000 C 184.633 138.000,185.200 137.648,185.200 134.981 C 185.200 134.208,185.407 134.000,186.174 134.000 C 188.444 134.000,189.200 133.353,189.200 131.410 L 189.200 129.600 193.136 129.600 C 197.433 129.600,198.000 129.248,198.000 126.581 C 198.000 125.659,198.131 125.600,200.200 125.600 C 202.264 125.600,202.400 125.660,202.400 126.574 C 202.400 129.308,202.838 129.600,206.937 129.600 L 210.695 129.600 210.916 131.248 C 211.191 133.304,211.496 133.609,213.552 133.884 C 214.942 134.071,215.200 134.250,215.200 135.027 C 215.200 137.703,215.654 138.000,219.737 138.000 L 223.495 138.000 223.716 139.648 C 224.027 141.969,224.397 142.183,228.372 142.338 L 231.905 142.476 232.121 144.086 C 232.429 146.384,232.799 146.584,237.019 146.739 L 240.800 146.877 240.800 148.359 C 240.800 150.224,241.373 150.800,243.227 150.800 C 244.644 150.800,244.702 150.857,244.916 152.448 C 245.229 154.787,245.587 154.983,249.819 155.139 L 253.600 155.277 253.600 156.974 C 253.600 159.156,254.482 159.600,258.819 159.600 C 261.923 159.600,262.000 159.624,262.000 160.574 C 262.000 163.308,262.438 163.600,266.537 163.600 L 270.295 163.600 270.516 165.248 C 270.790 167.296,271.098 167.609,273.105 167.878 C 274.632 168.083,274.717 168.170,274.927 169.732 C 275.293 172.457,275.251 172.449,287.681 172.317 C 299.839 172.189,299.535 172.255,299.884 169.648 L 300.105 168.000 303.227 168.000 C 307.720 168.000,308.400 167.660,308.400 165.410 L 308.400 163.600 312.336 163.600 C 316.620 163.600,317.200 163.245,317.200 160.621 C 317.200 159.713,317.327 159.675,320.780 159.540 C 324.805 159.383,325.173 159.172,325.484 156.848 L 325.705 155.200 328.403 155.200 C 333.126 155.200,333.544 155.012,333.844 152.751 L 334.103 150.800 337.772 150.800 C 341.919 150.800,342.400 150.548,342.400 148.373 C 342.400 146.956,342.457 146.898,344.048 146.684 C 346.104 146.409,346.409 146.104,346.684 144.048 L 346.905 142.400 350.027 142.400 C 354.520 142.400,355.200 142.060,355.200 139.810 L 355.200 138.000 359.136 138.000 C 363.433 138.000,364.000 137.648,364.000 134.981 C 364.000 134.035,364.097 134.000,366.750 134.000 C 371.531 134.000,371.944 133.816,372.244 131.551 L 372.503 129.600 376.261 129.600 C 380.362 129.600,380.800 129.308,380.800 126.574 C 380.800 125.624,380.877 125.600,383.981 125.600 C 388.318 125.600,389.200 125.156,389.200 122.974 L 389.200 121.277 392.981 121.139 C 397.213 120.983,397.571 120.787,397.884 118.448 C 398.073 117.043,398.245 116.800,399.053 116.800 L 400.000 116.800 400.000 108.400 L 400.000 100.000 399.000 100.000 C 398.171 100.000,398.000 99.808,398.000 98.876 C 398.000 96.635,397.257 96.214,393.033 96.061 L 389.200 95.923 389.200 94.226 C 389.200 92.044,388.318 91.600,383.981 91.600 C 380.877 91.600,380.800 91.576,380.800 90.626 C 380.800 88.356,380.153 87.600,378.210 87.600 L 376.400 87.600 376.400 85.790 C 376.400 83.536,375.723 83.200,371.174 83.200 L 368.000 83.200 368.000 81.464 C 368.000 79.239,367.140 78.800,362.781 78.800 C 359.677 78.800,359.600 78.776,359.600 77.826 C 359.600 75.092,359.162 74.800,355.063 74.800 L 351.305 74.800 351.084 73.152 C 350.771 70.813,350.413 70.617,346.181 70.461 L 342.400 70.323 342.400 68.626 C 342.400 66.444,341.518 66.000,337.181 66.000 C 334.077 66.000,334.000 65.976,334.000 65.026 C 334.000 62.756,333.353 62.000,331.410 62.000 L 329.600 62.000 329.600 60.190 C 329.600 57.936,328.923 57.600,324.374 57.600 L 321.200 57.600 321.200 56.080 C 321.200 53.848,320.737 53.600,316.572 53.600 L 312.903 53.600 312.644 51.649 C 312.344 49.388,311.926 49.200,307.203 49.200 L 304.505 49.200 304.284 47.552 C 303.971 45.213,303.613 45.017,299.381 44.861 L 295.600 44.723 295.600 43.241 C 295.600 41.051,295.124 40.800,290.972 40.800 L 287.303 40.800 287.039 38.812 L 286.776 36.824 284.788 36.561 L 282.800 36.297 282.800 34.613 C 282.800 32.445,281.911 32.000,277.581 32.000 L 274.400 32.000 274.400 30.480 C 274.400 28.248,273.937 28.000,269.772 28.000 L 266.103 28.000 265.844 26.049 C 265.544 23.788,265.126 23.600,260.403 23.600 L 257.705 23.600 257.484 21.952 C 257.171 19.613,256.813 19.417,252.581 19.261 L 248.800 19.123 248.800 17.551 C 248.800 15.570,247.986 15.200,243.627 15.200 L 240.505 15.200 240.284 13.552 C 240.009 11.496,239.704 11.191,237.648 10.916 C 236.057 10.702,236.000 10.644,236.000 9.227 C 236.000 7.052,235.519 6.800,231.372 6.800 L 227.703 6.800 227.444 4.849 C 227.144 2.584,226.731 2.400,221.950 2.400 L 219.200 2.400 219.200 1.200 L 219.200 0.000 200.200 0.000 L 181.200 0.000 181.200 1.200 M0.000 234.000 L 0.000 333.600 1.148 333.600 C 2.221 333.600,2.314 333.729,2.556 335.551 C 2.856 337.812,3.274 338.000,7.997 338.000 L 10.695 338.000 10.916 339.648 C 11.191 341.704,11.496 342.009,13.552 342.284 C 14.942 342.471,15.200 342.650,15.200 343.427 C 15.200 346.103,15.654 346.400,19.737 346.400 L 23.495 346.400 23.716 348.048 C 24.027 350.369,24.397 350.583,28.372 350.738 L 31.905 350.876 32.121 352.486 C 32.429 354.784,32.799 354.984,37.019 355.139 L 40.800 355.277 40.800 356.759 C 40.800 358.949,41.276 359.200,45.428 359.200 L 49.097 359.200 49.356 361.151 C 49.656 363.416,50.069 363.600,54.850 363.600 C 57.497 363.600,57.600 363.636,57.600 364.574 C 57.600 366.824,58.251 367.600,60.139 367.600 L 61.897 367.600 62.156 369.551 C 62.456 371.812,62.874 372.000,67.597 372.000 L 70.295 372.000 70.516 373.648 C 70.827 375.972,71.195 376.183,75.220 376.340 C 78.673 376.475,78.800 376.513,78.800 377.421 C 78.800 380.045,79.380 380.400,83.664 380.400 L 87.600 380.400 87.600 382.210 C 87.600 384.460,88.280 384.800,92.773 384.800 L 95.895 384.800 96.116 386.448 C 96.391 388.504,96.696 388.809,98.752 389.084 C 100.343 389.298,100.400 389.356,100.400 390.773 C 100.400 392.948,100.881 393.200,105.028 393.200 L 108.697 393.200 108.956 395.151 C 109.256 397.412,109.674 397.600,114.397 397.600 L 117.095 397.600 117.316 399.248 C 117.627 401.572,117.995 401.783,122.020 401.940 C 125.473 402.075,125.600 402.113,125.600 403.021 C 125.600 405.645,126.180 406.000,130.464 406.000 L 134.400 406.000 134.400 407.736 C 134.400 409.961,135.260 410.400,139.619 410.400 C 142.723 410.400,142.800 410.424,142.800 411.374 C 142.800 413.644,143.447 414.400,145.390 414.400 L 147.200 414.400 147.200 416.210 C 147.200 418.460,147.880 418.800,152.373 418.800 L 155.495 418.800 155.716 420.448 C 156.027 422.772,156.395 422.983,160.420 423.140 C 163.894 423.275,164.000 423.308,164.000 424.240 L 164.000 425.200 178.800 425.200 L 193.600 425.200 193.600 365.826 C 193.600 300.667,193.757 304.400,191.010 304.400 L 189.200 304.400 189.200 302.590 C 189.200 300.340,188.520 300.000,184.027 300.000 L 180.905 300.000 180.684 298.352 C 180.409 296.296,180.104 295.991,178.048 295.716 C 176.457 295.502,176.400 295.444,176.400 294.027 C 176.400 291.848,175.923 291.600,171.720 291.600 L 168.000 291.600 168.000 289.864 C 168.000 287.639,167.140 287.200,162.781 287.200 C 159.677 287.200,159.600 287.176,159.600 286.226 C 159.600 283.492,159.162 283.200,155.063 283.200 L 151.305 283.200 151.084 281.552 C 150.810 279.504,150.502 279.191,148.495 278.922 C 146.975 278.718,146.882 278.625,146.678 277.105 C 146.373 274.832,145.991 274.617,141.980 274.460 C 138.527 274.325,138.400 274.287,138.400 273.379 C 138.400 270.755,137.820 270.400,133.536 270.400 L 129.600 270.400 129.600 268.590 C 129.600 266.336,128.923 266.000,124.374 266.000 L 121.200 266.000 121.200 264.264 C 121.200 262.388,120.309 261.600,118.187 261.600 L 117.212 261.600 117.106 224.020 C 117.021 193.854,116.898 186.337,116.481 185.920 C 116.151 185.590,114.582 185.349,112.181 185.261 L 108.400 185.123 108.400 183.426 C 108.400 181.244,107.518 180.800,103.181 180.800 C 100.077 180.800,100.000 180.776,100.000 179.826 C 100.000 177.092,99.562 176.800,95.463 176.800 L 91.705 176.800 91.484 175.152 C 91.171 172.813,90.813 172.617,86.581 172.461 L 82.800 172.323 82.800 170.841 C 82.800 168.647,82.327 168.400,78.120 168.400 L 74.400 168.400 74.400 166.590 C 74.400 164.659,73.643 164.000,71.427 164.000 C 70.650 164.000,70.471 163.742,70.284 162.352 C 69.971 160.013,69.613 159.817,65.381 159.661 L 61.600 159.523 61.600 158.041 C 61.600 155.851,61.124 155.600,56.972 155.600 L 53.303 155.600 53.044 153.649 C 52.744 151.388,52.326 151.200,47.603 151.200 L 44.905 151.200 44.684 149.552 C 44.371 147.213,44.013 147.017,39.781 146.861 L 36.000 146.723 36.000 145.241 C 36.000 143.051,35.524 142.800,31.372 142.800 L 27.703 142.800 27.444 140.849 C 27.144 138.584,26.731 138.400,21.950 138.400 C 19.303 138.400,19.200 138.364,19.200 137.426 C 19.200 136.890,19.024 135.990,18.810 135.426 L 18.420 134.400 9.210 134.400 L 0.000 134.400 0.000 234.000 M381.680 134.880 C 381.416 135.144,381.200 136.044,381.200 136.880 L 381.200 138.400 378.026 138.400 C 373.477 138.400,372.800 138.736,372.800 140.990 L 372.800 142.800 368.864 142.800 C 364.580 142.800,364.000 143.155,364.000 145.779 C 364.000 146.687,363.873 146.725,360.420 146.860 C 356.395 147.017,356.027 147.228,355.716 149.552 L 355.495 151.200 352.373 151.200 C 347.880 151.200,347.200 151.540,347.200 153.790 L 347.200 155.600 343.264 155.600 C 338.980 155.600,338.400 155.955,338.400 158.579 C 338.400 159.487,338.273 159.525,334.820 159.660 C 330.809 159.817,330.427 160.032,330.122 162.305 C 329.918 163.825,329.825 163.918,328.305 164.122 C 326.298 164.391,325.990 164.704,325.716 166.752 L 325.495 168.400 321.812 168.400 C 317.808 168.400,317.200 168.793,317.200 171.379 C 317.200 172.287,317.073 172.325,313.620 172.460 C 309.595 172.617,309.227 172.828,308.916 175.152 L 308.695 176.800 305.027 176.800 C 300.876 176.800,300.400 177.051,300.400 179.241 L 300.400 180.723 296.619 180.861 C 292.401 181.016,292.029 181.217,291.722 183.506 L 291.507 185.109 287.769 185.272 C 285.713 185.362,283.889 185.578,283.716 185.751 C 283.542 185.925,283.351 203.038,283.292 223.782 L 283.184 261.497 281.544 261.717 C 279.503 261.991,279.191 262.299,278.921 264.314 L 278.705 265.924 275.172 266.062 C 271.197 266.217,270.827 266.431,270.516 268.752 L 270.295 270.400 266.537 270.400 C 262.438 270.400,262.000 270.692,262.000 273.426 C 262.000 274.376,261.923 274.400,258.819 274.400 C 254.489 274.400,253.600 274.845,253.600 277.013 L 253.600 278.697 251.612 278.961 L 249.624 279.224 249.361 281.212 L 249.097 283.200 245.428 283.200 C 241.276 283.200,240.800 283.451,240.800 285.641 L 240.800 287.123 237.019 287.261 C 232.787 287.417,232.429 287.613,232.116 289.952 L 231.895 291.600 228.212 291.600 C 224.196 291.600,223.600 291.990,223.600 294.619 C 223.600 295.394,223.394 295.600,222.619 295.600 C 220.507 295.600,219.600 296.389,219.600 298.226 L 219.600 299.923 215.819 300.061 C 211.587 300.217,211.229 300.413,210.916 302.752 C 210.702 304.343,210.644 304.400,209.227 304.400 C 208.420 304.400,207.544 304.616,207.280 304.880 C 206.911 305.249,206.800 319.209,206.800 365.280 L 206.800 425.200 221.400 425.200 L 236.000 425.200 236.000 424.239 C 236.000 423.301,236.094 423.274,239.781 423.139 C 244.013 422.983,244.371 422.787,244.684 420.448 L 244.905 418.800 247.603 418.800 C 252.326 418.800,252.744 418.612,253.044 416.351 L 253.303 414.400 254.987 414.400 C 256.800 414.400,257.600 413.487,257.600 411.421 C 257.600 410.513,257.727 410.475,261.180 410.340 C 265.205 410.183,265.573 409.972,265.884 407.648 L 266.105 406.000 269.773 406.000 C 273.937 406.000,274.400 405.752,274.400 403.520 L 274.400 402.000 277.581 402.000 C 281.918 402.000,282.800 401.556,282.800 399.374 L 282.800 397.677 286.581 397.539 C 290.813 397.383,291.171 397.187,291.484 394.848 L 291.705 393.200 295.463 393.200 C 299.546 393.200,300.000 392.903,300.000 390.227 C 300.000 389.450,300.258 389.271,301.648 389.084 C 303.704 388.809,304.009 388.504,304.284 386.448 L 304.505 384.800 307.203 384.800 C 311.926 384.800,312.344 384.612,312.644 382.351 L 312.903 380.400 316.572 380.400 C 320.737 380.400,321.200 380.152,321.200 377.920 L 321.200 376.400 324.381 376.400 C 328.718 376.400,329.600 375.956,329.600 373.774 L 329.600 372.077 333.381 371.939 C 337.613 371.783,337.971 371.587,338.284 369.248 C 338.492 367.696,338.582 367.600,339.820 367.600 C 342.033 367.600,342.400 367.287,342.400 365.396 L 342.400 363.677 346.181 363.539 C 350.413 363.383,350.771 363.187,351.084 360.848 L 351.305 359.200 355.063 359.200 C 359.162 359.200,359.600 358.908,359.600 356.174 C 359.600 355.224,359.677 355.200,362.781 355.200 C 367.140 355.200,368.000 354.761,368.000 352.536 L 368.000 350.800 371.174 350.800 C 375.723 350.800,376.400 350.464,376.400 348.210 L 376.400 346.400 380.336 346.400 C 384.633 346.400,385.200 346.048,385.200 343.381 C 385.200 342.606,385.406 342.400,386.181 342.400 C 388.293 342.400,389.200 341.611,389.200 339.774 L 389.200 338.077 392.981 337.939 C 397.213 337.783,397.571 337.587,397.884 335.248 C 398.073 333.843,398.245 333.600,399.053 333.600 L 400.000 333.600 400.000 234.000 L 400.000 134.400 391.080 134.400 C 384.676 134.400,382.025 134.535,381.680 134.880 " stroke="none" fill="#242c34" fill-rule="evenodd"></path><path id="path1" d="" stroke="none" fill="#282c34" fill-rule="evenodd"></path><path id="path2" d="" stroke="none" fill="#282c34" fill-rule="evenodd"></path><path id="path3" d="" stroke="none" fill="#282c34" fill-rule="evenodd"></path><path id="path4" d="" stroke="none" fill="#282c34" fill-rule="evenodd"></path></g></svg>